<svg width="32" height="32" viewBox="0 0 32 32" fill="none" xmlns="http://www.w3.org/2000/svg">
<g opacity="0.5">
<path d="M3.59355 15.7856C3.50463 15.5219 3.50463 15.2363 3.59355 14.9726C5.35835 9.6629 10.3677 5.83301 16.2716 5.83301C22.173 5.83301 27.1798 9.65908 28.9485 14.9662C29.0375 15.2296 29.0375 15.5146 28.9485 15.7793C27.1849 21.089 22.1755 24.9189 16.2716 24.9189C10.3703 24.9189 5.36217 21.0928 3.59355 15.7856Z" stroke="#E3E3E3" stroke-width="1.90858" stroke-linecap="round" stroke-linejoin="round"/>
<path d="M20.0679 16.0122C20.0679 17.0246 19.6658 17.9955 18.9499 18.7114C18.2341 19.4272 17.2631 19.8294 16.2508 19.8294C15.2384 19.8294 14.2675 19.4272 13.5516 18.7114C12.8358 17.9955 12.4336 17.0246 12.4336 16.0122C12.4336 14.9999 12.8358 14.0289 13.5516 13.3131C14.2675 12.5972 15.2384 12.1951 16.2508 12.1951C17.2631 12.1951 18.2341 12.5972 18.9499 13.3131C19.6658 14.0289 20.0679 14.9999 20.0679 16.0122Z" stroke="#E3E3E3" stroke-width="1.90858" stroke-linecap="round" stroke-linejoin="round"/>
</g>
</svg>
